<svg xmlns="http://www.w3.org/2000/svg" viewBox="140 148 570 330"><defs><style>.cls-1{fill:#E5FCEF;}.cls-2{fill:#E5FCEF;}</style></defs><title>MLCare logo</title><g id="Całość"><g id="Wnętrze2"><path class="cls-1" d="M333.71,184.83a17.51,17.51,0,1,0,17.51,17.5A17.51,17.51,0,0,0,333.71,184.83Zm0,23.61a6.11,6.11,0,1,1,6.11-6.11A6.1,6.1,0,0,1,333.71,208.44Z"/><path class="cls-1" d="M380.17,269.19a17.51,17.51,0,1,0,17.51,17.5A17.51,17.51,0,0,0,380.17,269.19Zm0,23.61a6.11,6.11,0,1,1,6.11-6.11A6.1,6.1,0,0,1,380.17,292.8Z"/><path class="cls-1" d="M431.43,269.19a17.51,17.51,0,1,0,17.5,17.5A17.51,17.51,0,0,0,431.43,269.19Zm0,23.61a6.11,6.11,0,1,1,6.1-6.11A6.1,6.1,0,0,1,431.43,292.8Z"/><path class="cls-1" d="M340.53,269.19A17.51,17.51,0,1,0,358,286.69,17.51,17.51,0,0,0,340.53,269.19Zm0,23.61a6.11,6.11,0,1,1,6.11-6.11A6.1,6.1,0,0,1,340.53,292.8Z"/><path class="cls-1" d="M279.11,314.23a17.51,17.51,0,1,0,17.51,17.5A17.5,17.5,0,0,0,279.11,314.23Zm0,23.61a6.11,6.11,0,1,1,6.11-6.11A6.11,6.11,0,0,1,279.11,337.84Z"/><path class="cls-1" d="M325.69,314.23a17.51,17.51,0,1,0,17.5,17.5A17.51,17.51,0,0,0,325.69,314.23Zm0,23.61a6.11,6.11,0,1,1,6.1-6.11A6.1,6.1,0,0,1,325.69,337.84Z"/><path class="cls-1" d="M395.55,347.4a17.51,17.51,0,1,0,17.51,17.5A17.5,17.5,0,0,0,395.55,347.4Zm0,23.61a6.11,6.11,0,1,1,6.11-6.11A6.11,6.11,0,0,1,395.55,371Z"/><path class="cls-1" d="M513.53,386.45A17.51,17.51,0,1,0,531,404,17.5,17.5,0,0,0,513.53,386.45Zm0,23.61a6.11,6.11,0,1,1,6.11-6.11A6.11,6.11,0,0,1,513.53,410.06Z"/><path class="cls-1" d="M562.22,386.45a17.51,17.51,0,1,0,17.5,17.5A17.51,17.51,0,0,0,562.22,386.45Zm0,23.61a6.11,6.11,0,1,1,6.11-6.11A6.11,6.11,0,0,1,562.22,410.06Z"/><path class="cls-1" d="M593,329.42a17.51,17.51,0,1,0,17.51,17.5A17.5,17.5,0,0,0,593,329.42ZM593,353a6.11,6.11,0,1,1,6.11-6.11A6.11,6.11,0,0,1,593,353Z"/><path class="cls-1" d="M522.42,269.19a17.51,17.51,0,1,0,17.5,17.5A17.51,17.51,0,0,0,522.42,269.19Zm0,23.61a6.11,6.11,0,1,1,6.1-6.11A6.1,6.1,0,0,1,522.42,292.8Z"/><path class="cls-1" d="M488.44,186.73a17.51,17.51,0,1,0,17.5,17.51A17.51,17.51,0,0,0,488.44,186.73Zm0,23.61a6.11,6.11,0,1,1,6.1-6.1A6.1,6.1,0,0,1,488.44,210.34Z"/><path class="cls-1" d="M567.44,268.73a17.51,17.51,0,1,0,17.5,17.51A17.51,17.51,0,0,0,567.44,268.73Zm0,23.61a6.11,6.11,0,1,1,6.1-6.1A6.1,6.1,0,0,1,567.44,292.34Z"/><path class="cls-1" d="M421.19,172.48a17.5,17.5,0,1,0,17.5,17.5A17.5,17.5,0,0,0,421.19,172.48Zm0,23.61A6.11,6.11,0,1,1,427.3,190,6.12,6.12,0,0,1,421.19,196.09Z"/><path class="cls-1" d="M411.08,213.82a17.51,17.51,0,1,0,17.5,17.51A17.51,17.51,0,0,0,411.08,213.82Zm0,23.61a6.11,6.11,0,1,1,6.1-6.1A6.1,6.1,0,0,1,411.08,237.43Z"/><path class="cls-1" d="M254.85,270.5a17.5,17.5,0,1,0,17.5,17.5A17.5,17.5,0,0,0,254.85,270.5Zm0,23.61A6.11,6.11,0,1,1,261,288,6.11,6.11,0,0,1,254.85,294.11Z"/><path class="cls-2" d="M617.47,294.83h0a8.49,8.49,0,0,1,2.49-6l3.92-3.92a12.26,12.26,0,0,0,3.59-8.66V249.13a11.6,11.6,0,0,0-3.4-8.21L579.6,196.44a7.26,7.26,0,0,0-5.13-2.12H548.9a8.26,8.26,0,0,1-5.85-2.42l-40.76-40.76a16.43,16.43,0,0,0-11.64-4.82H412.4a14.33,14.33,0,0,0-10.12,4.19l-18.75,18.75a7,7,0,0,1-5,2.06h-.78a8,8,0,0,1-5.65-2.34l-5.32-5.33a14.83,14.83,0,0,0-10.47-4.33H316.68a17.38,17.38,0,0,0-12.3,5.09L273.79,195a8,8,0,0,0-2.32,5.59v1.57a5.16,5.16,0,0,1-5.16,5.16H255.65a10.07,10.07,0,0,0-7.13,3l-38.21,38.21a9.69,9.69,0,0,0-2.84,6.86v43.74a12.7,12.7,0,0,0,3.71,8.95L236,332.84a11.88,11.88,0,0,1,3.48,8.4v7.25a14.08,14.08,0,0,0,4.13,9.95L259,373.86a15.27,15.27,0,0,0,10.78,4.46h70a13.77,13.77,0,0,1,9.75,4L379.19,412a14.6,14.6,0,0,0,10.35,4.29h62.29a13.59,13.59,0,0,1,9.63,4l23.25,23.24a16.28,16.28,0,0,0,11.5,4.77h76.28a16.86,16.86,0,0,0,11.92-4.94l46.78-46.78a14.62,14.62,0,0,0,4.28-10.34V321.87a13.44,13.44,0,0,0-3.92-9.48l-11.61-11.61A8.38,8.38,0,0,1,617.47,294.83Zm-20,114.49c-25,25-34,25-43,25h-25c-34,0-40-6-43-9l-8.85-8.85a10.85,10.85,0,0,1,0-15.3l19.85-19.85c3.5-3.5,8-4,12,0s18,20,20,18,11.5-7.5,4-15-19-20-24-20h-12c-5,0-12.5,10.5-20,18s-19,20-28,20h-48c-11,0-20.5-9.5-28-17s-16-15-16-24,3-13,9-19,10-7,17-7h34c20,0,26.5-5.5,30-9l16-16c10.5-10.5,18-15,22-15h14c7,0,12.06,6,15,6s1-2.31,1-3.47V277.92c0-1.14-3-5.6-6-2.6-2.55,2.55-6.22,4-20,4-21,0-27.5,9.5-37,19s-19,20-25,20h-44c-13,0-21.5,5.5-32,16s-10,19-10,23-4,6-6,6h-54c-7,0-7,1-14-3s-16-19-12-21,13.35,3.17,19,6c2,1-6.83-20.17-4-23,6-6-6,2-12,2s-12-5-16-9-19-17-19-21v-24c0-7,1-13,5-17l26-26c5-5,11-5,15,0s0,12-4,16-16,15-18,20-3,10-5,15,20,0,20-5,5-10,13-18,12-17,12-21v-20c0-5,0-10,5-15l17-17c9-9,14-9,20-9,12,0,28-1,34,5s9,8,9,24-.5,21.5-4.5,25.5l-28.5,28.5c-9.5,9.5-8,18-9,20-.75,1.5,1.33.74,2.41.27a1.61,1.61,0,0,1,1.22,0c3.16,1.19,17.15,6.31,15.37,2.76-2-4-2-9,5-16l17-17c14-14,15-21,15-26v-16c0-7-1-18,5-24l13-13a24.36,24.36,0,0,1,18-7h33c25.68,0,34.74-.73,41.25,5.78,6.3,6.66,18.57,19.44,24.87,26.1,5.5,5.51,7.38,9.62,1.88,15.12-4.5,4.5-14,15-24,25s-16,12-28,12h-30c-7,0-13-6-13-11,0-1.61-4.56-2-4.79-.45l-.09.64a1.63,1.63,0,0,1-.83,1.2l-10.13,5.52a1.61,1.61,0,0,0-.3.21c-1,.87-6.52,7.88-1.86,7.88,6,0,22,12,29,12h44c7,0,18-8,22-12s8.5-6.5,18,3,21,8,30,8,7,6,7,10a10.31,10.31,0,0,1-.75,4,1.63,1.63,0,0,0,1.3,2.22,4.83,4.83,0,0,1,2.45.82c1,1,12,5,12,6s9-2,6-5-6-9-6-19-10-14-14-14h-18c-4,0-25-9-12-22s19-14,26-14,16,2,20,6l22,22c8.5,8.5,14,16,14,27s-8.5,17.5-12,21l-32,32c-4.5,4.5-4.5,13.5,0,18,3.18,3.18,8,12,9,16,.3,1.21,1.87-1.34,2.54-2.38l10.46-10.62c.42-.64,13-3,8-5l-12.85-2.85a5.87,5.87,0,0,1,0-8.3l7.58-7.58a12.91,12.91,0,0,1,19.85,1.87c5,7.57,5.42,19.1,5.42,40.86C619.47,381.32,622.47,384.32,597.47,409.32Z"/><path class="cls-2" d="M320.47,212.32c4,3,8,6,4,10l-17,17-13,13c-2.5,2.5-5,13-5,24v20c0,6,3.5,15.5,8,20s10,9,12,15,19-12,19-14-11.5-3.5-16-8a24.69,24.69,0,0,1-7-17v-19c0-5,1.53-12.47,9-20,8.42-8.48,14.55-15.7,18-19,2.91-2.79,10-9,9-13s3-4,5-9c2.12-5.29-16,1-16,1Z"/><path class="cls-2" d="M404.47,351.32a28.39,28.39,0,0,0,17,6c10,0,27,1,36-8l26-26c5.5-5.5,13-8,21-8s13.5-.5,33,19l26,26c7,7,6,19,7,23a78.38,78.38,0,0,0,5,14c2,4-10-7-18-3s-8,4-6-1,6-10,4-16-12.5-15.5-24-27-17-19-26-19-13,5-21,13L464,364.82c-6,6-19.5,7.5-30.5,7.5s-21-1-26,4S404.47,351.32,404.47,351.32Z"/><path class="cls-2" d="M382.47,272.32s5-5,9-7,18-1,25-1c4.47,0,15,8,13,10s-5,11-8,9-9-5-14-5-8,0-12,4S382.47,272.32,382.47,272.32Z"/><path class="cls-2" d="M435.47,194.32c2,5,8,5,20,5s18,0,22-3,5,20,5,20-9-4-18-4h-26c-6,0-11-5-15-7S435.47,194.32,435.47,194.32Z"/></g></g></svg>
